<?xml version="1.0" standalone="no"?><!DOCTYPE svg PUBLIC "-//W3C//DTD SVG 1.1//EN" "http://www.w3.org/Graphics/SVG/1.1/DTD/svg11.dtd"><svg t="1704038073213" class="icon" viewBox="0 0 1024 1024" version="1.1" xmlns="http://www.w3.org/2000/svg" p-id="11084" xmlns:xlink="http://www.w3.org/1999/xlink" width="200" height="200"><path d="M0 512C0 229.218462 229.179077 0 512 0c282.781538 0 512 229.179077 512 512 0 282.781538-229.179077 512-512 512-282.781538 0-512-229.179077-512-512z m707.032615-34.264615c-36.903385-27.569231-87.906462-60.258462-142.020923-91.057231-54.626462-31.113846-108.307692-57.895385-150.055384-74.830769-20.125538-8.152615-36.864-13.784615-48.955077-16.46277-16.147692 54.075077-14.729846 373.76 0.472615 433.23077a382.582154 382.582154 0 0 0 46.08-16.187077c41.905231-17.171692 95.940923-44.110769 150.685539-74.870154 54.862769-30.877538 106.259692-63.330462 143.36-90.663385 18.156308-13.390769 32.374154-25.127385 41.708307-34.461538a381.243077 381.243077 0 0 0-41.275077-34.658462z" fill="#FF7820" p-id="11085"></path></svg>